<svg width="33" height="32" viewBox="0 0 33 32" fill="none" xmlns="http://www.w3.org/2000/svg">
<path fill-rule="evenodd" clip-rule="evenodd" d="M15.793 2.99602C13.1327 2.95802 10.4507 3.70043 8.11283 5.26353C2.76916 8.83663 0.68223 15.7222 3.14167 21.6639C5.60108 27.6055 11.9393 30.9948 18.2425 29.7401C24.5457 28.4854 29.106 22.9253 29.1061 16.494H29.1001V14.994H17.1084V18.994H20.1063H23.1042H24.9233C23.9949 22.4756 21.168 25.223 17.4909 25.9549C12.9687 26.855 8.468 24.4481 6.70351 20.1854C4.93899 15.9225 6.41998 11.0359 10.2538 8.47252C14.0875 5.90912 19.1647 6.41109 22.425 9.67369L25.1536 6.94517C22.8814 4.67137 19.955 3.35851 16.9308 3.06041C16.5527 3.02341 16.1729 3.00144 15.7929 2.99644L15.793 2.99602Z" fill="white"/>
<path fill-rule="evenodd" clip-rule="evenodd" d="M6.41819 19.4023L3.21533 21.8203C5.72167 27.6623 11.9957 30.9836 18.242 29.7402C21.1292 29.1655 23.6429 27.6803 25.528 25.629L22.5086 23.213C21.1859 24.573 19.4679 25.5616 17.4906 25.9552C12.9683 26.8553 8.46763 24.4482 6.70314 20.1855C6.59603 19.9268 6.50156 19.665 6.41819 19.4023Z" fill="white"/>
<path fill-rule="evenodd" clip-rule="evenodd" d="M4.61051 8.67188C1.98836 12.3749 1.32569 17.2766 3.14168 21.6638C3.18325 21.7642 3.26967 21.9628 3.26967 21.9628C4.62268 21.1811 5.62198 20.4944 6.57344 19.8466C6.53047 19.7322 6.4863 19.6117 6.45746 19.5247C5.49215 16.6167 5.97712 13.4944 7.64023 11.0574C5.62198 9.49437 5.62198 9.49437 4.61051 8.67188Z" fill="white"/>
<path fill-rule="evenodd" clip-rule="evenodd" d="M17.108 14.9946V18.9946H20.106H23.1039H24.9229C24.4938 20.604 23.6455 22.0444 22.5086 23.2135L25.528 25.6295C27.7583 23.2025 29.1056 19.98 29.1056 16.4946H29.0996V14.9946H17.1079H17.108Z" fill="white"/>
</svg>
