<svg width="41" height="26" viewBox="0 0 41 26" fill="none" xmlns="http://www.w3.org/2000/svg">
<path d="M25.0769 9.47838C24.9162 9.34311 24.6827 9.27441 24.3797 9.27441H22.8072L22.0811 12.8162H22.8107L23.0719 11.5358H23.9155C24.2545 11.5358 24.5503 11.4324 24.8001 11.2277C25.0485 11.0223 25.2085 10.7518 25.2786 10.4139C25.292 10.353 25.3012 10.2935 25.309 10.2348C25.3139 10.176 25.3168 10.1207 25.3168 10.0726V10.0648C25.3168 9.80983 25.2368 9.61436 25.0769 9.47838ZM24.5581 10.3155C24.5538 10.3424 24.5496 10.3722 24.5432 10.404C24.505 10.5797 24.4357 10.7086 24.3309 10.7935C24.2262 10.8771 24.0811 10.9196 23.8985 10.9196H23.1993L23.4137 9.88136H24.0068C24.2021 9.88136 24.3415 9.90898 24.4314 9.96705C24.5199 10.0237 24.5645 10.1151 24.5645 10.2404C24.5645 10.2652 24.5609 10.29 24.5581 10.3155Z" fill="white"/>
<path d="M26.7967 10.8082L26.5426 10.9831C26.2772 10.7756 26.0352 10.6467 25.5674 10.8641C24.9304 11.1602 24.3974 13.4272 26.1491 12.6807L26.2503 12.799L26.9418 12.8167L27.3948 10.7558L26.7967 10.8082ZM26.4046 11.935C26.2942 12.2629 26.0458 12.4789 25.8519 12.4173C25.6579 12.3578 25.5893 12.0419 25.7025 11.7133C25.8122 11.3847 26.0621 11.1701 26.2539 11.231C26.4478 11.2912 26.5172 11.6071 26.4046 11.935Z" fill="white"/>
<path d="M12.9619 9.14399L12.4594 11.5647C12.4156 11.7786 12.3172 11.9422 12.1664 12.0576C12.0157 12.1745 11.8218 12.2318 11.5861 12.2318C11.3801 12.2318 11.2329 12.173 11.1424 12.0548C11.0801 11.9754 11.0496 11.8742 11.0503 11.7502C11.0496 11.6943 11.0553 11.632 11.0709 11.564L11.5719 9.14329H10.8055L10.298 11.5923C10.2733 11.7113 10.2612 11.8225 10.2612 11.9259C10.2612 12.1752 10.3341 12.382 10.4792 12.5441C10.6887 12.7729 11.0171 12.8862 11.4658 12.8862C11.9421 12.8862 12.3313 12.7743 12.6321 12.5519C12.9364 12.3253 13.1332 12.0066 13.2174 11.5916L13.7249 9.14258L12.9619 9.14399Z" fill="white"/>
<path d="M21.8201 10.7739C21.7168 10.6408 21.5526 10.5742 21.3254 10.5742C21.0749 10.5742 20.8605 10.6677 20.685 10.8554L20.6086 10.9453L20.6701 10.6302H20.128L19.6914 12.8164H20.2476L20.4982 11.5601C20.5293 11.4021 20.5944 11.2782 20.6928 11.189C20.7918 11.1004 20.9122 11.0558 21.0551 11.0558C21.1712 11.0558 21.2497 11.0891 21.2943 11.1564C21.3375 11.2229 21.3438 11.3271 21.3162 11.4666L21.0466 12.8164H21.6036L21.9008 11.3271C21.9496 11.0912 21.9206 10.9071 21.8201 10.7739Z" fill="white"/>
<path d="M15.6133 10.7746C15.5107 10.6401 15.3465 10.5742 15.1186 10.5742C14.8674 10.5742 14.6543 10.6677 14.4781 10.8554L14.4009 10.9453L14.4625 10.6302H13.9211L13.4844 12.8164H14.0414L14.2898 11.5608C14.3217 11.4028 14.3868 11.2789 14.4852 11.1897C14.5835 11.1011 14.7039 11.0565 14.8468 11.0565C14.9636 11.0565 15.0443 11.0898 15.0861 11.1571C15.1292 11.2237 15.137 11.3278 15.1094 11.4673L14.8398 12.8171H15.3968L15.694 11.3278C15.7422 11.0919 15.7146 10.9078 15.6133 10.7746Z" fill="white"/>
<path d="M26.6854 14.1609C26.604 14.1624 26.5665 14.1305 26.5701 14.0667L26.5411 13.8125H25.8525L25.8759 14.3684C25.8858 14.5292 25.9842 14.6022 26.1773 14.5915H26.6833L26.8071 14.1609H26.6854Z" fill="white"/>
<path d="M16.4345 10.6304L15.9653 12.8145H16.564L17.0347 10.6304H16.4345Z" fill="white"/>
<path d="M19.0843 14.099L19.2365 13.8306H18.5083L18.2365 14.2371C18.2061 14.3008 18.1417 14.3341 18.0447 14.3341H17.94L17.8218 14.7633H18.3632C18.5408 14.7739 18.688 14.6896 18.8076 14.5083H19.8465L19.9576 14.099H19.0843Z" fill="white"/>
<path d="M24.918 13.8447C24.6491 13.8447 24.2747 14.0317 24.2747 14.0317L24.3066 13.8447H23.5748L23.4304 14.3539H23.5713L22.8876 16.7583H22.7475L22.6123 17.2364H24.0108L23.9513 17.4432H24.6597L24.7192 17.2364H24.8621L24.9966 16.7583H24.8536L25.5366 14.3539H25.6788L25.8225 13.8447C25.8225 13.8447 25.1877 13.8447 24.918 13.8447ZM24.0844 16.7583H23.538L23.6788 16.2647H24.2252L24.0844 16.7583ZM24.3568 15.8029C24.1148 15.8171 23.7609 15.9913 23.7609 15.9913L23.9485 15.3093H24.4962C24.4962 15.3093 24.4255 15.5395 24.3568 15.8029ZM24.6272 14.8476C24.3526 14.8823 24.0341 15.0048 24.0341 15.0048L24.2202 14.3539H24.7673C24.7673 14.3539 24.6873 14.6209 24.6272 14.8476Z" fill="white"/>
<path d="M29.2316 10.6294L28.6003 12.1067L28.5642 10.6308H28.2266L27.826 10.6365L28.0171 12.9892C27.8564 13.3093 27.5755 14.0302 27.0567 14.1903L27.0029 14.5649C27.6208 14.5876 27.8763 14.2817 28.0065 14.1492C28.1353 14.0161 28.3561 13.73 28.5854 13.2385L29.8713 10.6294H29.2316Z" fill="white"/>
<path d="M27.8816 14.7344H25.6537L25.5207 15.1975H26.2914L26.1682 15.6267H25.399L25.2666 16.0871H25.9757L25.4258 16.8831C25.3643 16.9568 25.2942 16.995 25.2114 16.995H25.009L24.8823 17.4405H25.5306C25.7033 17.4518 25.8314 17.3824 25.9149 17.2337L26.2659 16.7075L26.3692 17.2018C26.3784 17.3612 26.4924 17.4355 26.7125 17.4235H27.1371L27.2645 16.9773H27.1442C27.0628 16.9773 27.0147 16.9511 27.0033 16.8973L26.9149 16.3555H26.5277L26.7061 16.0857H27.4959L27.6282 15.6239H26.9191L27.0415 15.1954H27.7507V15.1961L27.8816 14.7344Z" fill="white"/>
<path d="M39.0448 0H1.13059C0.561584 0 0.101562 0.461048 0.101562 1.02974V24.8924C0.101562 25.4611 0.561584 25.9228 1.13059 25.9228H39.0448C39.6138 25.9228 40.0739 25.4618 40.0739 24.8931V1.02974C40.0739 0.461048 39.6138 0 39.0448 0ZM32.8232 6.65652L29.9732 19.2755C29.7878 20.0864 29.0022 20.7415 28.1926 20.7826H21.862C21.0403 20.7691 20.5293 20.097 20.7169 19.2698L20.9384 18.2875H20.4416L20.2201 19.2698C20.0325 20.0977 20.5428 20.7691 21.3652 20.7826H14.6347C13.8137 20.7691 13.3013 20.097 13.4903 19.2698L14.152 16.3399H13.5717L12.91 19.2698C12.7217 20.0977 13.2334 20.7691 14.0551 20.7826H8.49093C7.82921 20.7734 7.36919 20.3343 7.31328 19.7309V19.4972C7.31894 19.4242 7.32956 19.3477 7.34654 19.2712L10.1973 6.65227C10.3883 5.81657 11.4584 5.13952 12.2935 5.13952L17.8237 5.14093C16.9935 5.15793 15.9482 5.82649 15.7607 6.65227L15.2256 9.02337H15.806L16.3417 6.65297C16.5293 5.8279 17.5739 5.15864 18.404 5.14164C18.4146 5.14023 18.426 5.14023 18.4366 5.14023L22.7212 5.14235H25.1302C25.1253 5.14235 25.1203 5.14306 25.1161 5.14306C24.2881 5.16856 23.2583 5.83286 23.0694 6.65227L22.5336 9.02266H23.0304L23.5662 6.65227C23.7544 5.83286 24.7856 5.16856 25.6136 5.14306C25.6179 5.14306 25.6221 5.14235 25.6271 5.14235C25.6271 5.14235 25.6278 5.14235 25.6285 5.14235L31.6548 5.14377C32.4899 5.14377 33.0136 5.82153 32.8232 6.65652Z" fill="white"/>
<path d="M19.6114 15.3683L19.7332 14.9229H17.8195L17.6992 15.3683H18.1564L18.0396 15.7989H17.5605L17.4395 16.2451H17.9179L17.6956 17.0567C17.6263 17.3109 17.702 17.4391 17.9249 17.4391H19.0962L19.2094 17.0248H18.5994C18.4423 17.0355 18.3857 16.988 18.4288 16.8811L18.6029 16.2465H19.3524L19.4741 15.7996H18.7254L18.8421 15.3683H19.6114Z" fill="white"/>
<path d="M21.5325 13.8193C21.2048 13.8193 20.8438 14.0906 20.8438 14.0906L20.8729 13.83H20.2324L19.3236 17.1848C19.2805 17.3448 19.3895 17.4234 19.6534 17.4234H20.3399L20.4404 17.0587H20.1701C20.1 17.0587 20.0745 17.0261 20.0929 16.9624L20.4143 15.7839H21.7866C22.0767 15.7839 22.2416 15.689 22.2798 15.4971L22.7434 13.8193H21.5325ZM21.6386 15.257C21.633 15.3328 21.5877 15.3632 21.5077 15.3526H20.531L20.6209 15.0191H21.7037L21.6386 15.257ZM21.8127 14.6217C21.8127 14.6217 21.4702 14.6175 21.1701 14.6217C20.8686 14.626 20.6889 14.7563 20.6889 14.7563L20.8184 14.3038H21.8998L21.8127 14.6217Z" fill="white"/>
<path d="M16.6223 9.8335L16.5098 10.3647H17.115L17.2283 9.8335H16.6223Z" fill="white"/>
<path d="M19.3013 10.7979C19.1449 10.6471 18.9304 10.5713 18.6608 10.5713C18.3317 10.5713 18.05 10.6768 17.8172 10.885C17.5836 11.0932 17.4329 11.3751 17.3607 11.7299C17.3508 11.7802 17.343 11.834 17.3366 11.8893C17.331 11.9438 17.3281 11.9934 17.3281 12.038C17.3295 12.2951 17.4081 12.4976 17.5659 12.6478C17.7223 12.7951 17.9354 12.8702 18.2064 12.8702C18.5334 12.8702 18.8137 12.7682 19.0472 12.5621C19.2808 12.3581 19.4322 12.0791 19.5016 11.7299C19.5115 11.6768 19.52 11.623 19.5271 11.5663C19.5334 11.5111 19.5363 11.4594 19.5363 11.4148C19.5363 11.1542 19.4577 10.9495 19.3013 10.7979ZM18.9538 11.5833C18.9503 11.6216 18.9446 11.6591 18.9375 11.6952C18.8908 11.9261 18.8158 12.1003 18.7096 12.2151C18.6035 12.3305 18.4683 12.3886 18.3013 12.3886C18.1739 12.3886 18.0769 12.3525 18.009 12.2795C17.9396 12.2066 17.9049 12.1032 17.9049 11.9693C17.9049 11.9381 17.9056 11.9049 17.9092 11.868C17.9134 11.8333 17.9191 11.7965 17.9255 11.7604C17.9736 11.5245 18.0493 11.3482 18.1562 11.2306C18.2623 11.1138 18.3975 11.055 18.5638 11.055C18.6898 11.055 18.7868 11.0925 18.8554 11.1669C18.9248 11.2413 18.9587 11.3461 18.9587 11.4799C18.9587 11.5118 18.9566 11.5465 18.9538 11.5833Z" fill="white"/>
<path d="M21.7338 15.913L21.6814 16.0865C21.6814 16.1396 21.6397 16.1658 21.5555 16.1658H21.3899L21.4026 15.896H20.7777L20.731 17.1368C20.7282 17.35 20.8322 17.4491 21.041 17.4406H21.7904L21.8923 17.0745H21.5809C21.4429 17.0745 21.3764 17.0362 21.3821 16.9626L21.3835 16.5015H21.7161C21.968 16.4895 22.1237 16.3797 22.1825 16.1672L22.2518 15.913H21.7338Z" fill="white"/>
</svg>
