<svg width="41" height="40" viewBox="0 0 41 40" fill="none" xmlns="http://www.w3.org/2000/svg">
<g clip-path="url(#clip0_63778_260)">
<path d="M39.1653 7.03906H1.2512C0.682188 7.03906 0.222168 7.50011 0.222168 8.06881V31.9321C0.222168 32.5008 0.682188 32.9619 1.2512 32.9619H39.1653C39.7343 32.9619 40.1943 32.5008 40.1943 31.9321V8.06881C40.1943 7.50011 39.7343 7.03906 39.1653 7.03906ZM3.31704 14.8726H7.58319C8.15857 14.8946 8.62213 15.078 8.78207 15.6935L9.7099 20.1588C8.79835 17.8231 6.60158 15.8797 3.28165 15.0752L3.31704 14.8726ZM8.47917 25.0568L6.01488 16.6318C7.78631 17.7664 9.29517 19.5667 9.82667 20.8195L10.114 21.8599L12.809 14.9697H15.7248L11.3914 25.0546L8.47917 25.0568ZM17.8678 25.0639H15.1162L16.8367 14.959H19.5897L17.8678 25.0639ZM22.6563 25.2154C21.4227 25.2027 20.2344 24.9583 19.5904 24.6757L19.9775 22.4144L20.3321 22.5752C21.2359 22.9527 21.8212 23.1056 22.9231 23.1056C23.7136 23.1056 24.5607 22.7961 24.5685 22.1191C24.5735 21.6765 24.214 21.3606 23.1425 20.8648C22.0979 20.3818 20.715 19.5716 20.732 18.1205C20.7468 16.1566 22.6633 14.7862 25.3831 14.7862C26.4489 14.7862 27.3032 15.0058 27.8481 15.2105L27.4766 17.401L27.2282 17.2841C26.7214 17.0801 26.0696 16.8833 25.1687 16.8974C24.0915 16.8974 23.5919 17.3464 23.5919 17.7664C23.5862 18.2395 24.175 18.5511 25.1375 19.0199C26.725 19.7409 27.4589 20.6155 27.449 21.765C27.4277 23.8613 25.5501 25.2154 22.6563 25.2154ZM34.5814 25.0681C34.5814 25.0681 34.3301 23.9066 34.2466 23.5539C33.8461 23.5539 31.0378 23.5497 30.7222 23.5497C30.6153 23.8223 30.144 25.0681 30.144 25.0681H27.2543L31.34 15.8082C31.6302 15.1503 32.1221 14.9697 32.7817 14.9697H34.9076L37.1349 25.0674L34.5814 25.0681Z" fill="white"/>
<path d="M33.1608 18.5659L32.9753 17.6948C32.8352 18.0751 32.5939 18.6863 32.6094 18.6594C32.6094 18.6594 31.7397 20.9023 31.5132 21.4838H33.7984C33.688 20.9774 33.1608 18.5659 33.1608 18.5659Z" fill="white"/>
</g>
<defs>
<clipPath id="clip0_63778_260">
<rect width="39.9722" height="40" fill="white" transform="translate(0.222168)"/>
</clipPath>
</defs>
</svg>
