<svg width="33" height="32" viewBox="0 0 33 32" fill="none" xmlns="http://www.w3.org/2000/svg">
<path d="M30.134 10.2348C30.0684 8.74657 29.8279 7.72342 29.4834 6.83684C29.128 5.89576 28.5812 5.05322 27.8649 4.35281C27.1649 3.64149 26.3174 3.08877 25.3879 2.73867C24.4968 2.39392 23.4797 2.15325 21.9925 2.08763C20.4942 2.01646 20.0185 2 16.2184 2C12.4182 2 11.9426 2.01646 10.4498 2.08207C8.96259 2.14769 7.94015 2.38857 7.0544 2.73311C6.11376 3.08877 5.2718 3.63593 4.57187 4.35281C3.86105 5.05322 3.30893 5.90132 2.95886 6.8315C2.61434 7.72342 2.37385 8.74102 2.30827 10.2293C2.23715 11.7286 2.2207 12.2046 2.2207 16.0074C2.2207 19.8102 2.23715 20.2862 2.30272 21.78C2.36829 23.2682 2.60901 24.2914 2.95352 25.178C3.30893 26.119 3.86105 26.9616 4.57187 27.662C5.2718 28.3733 6.11931 28.926 7.04885 29.2761C7.94015 29.6209 8.95704 29.8615 10.4445 29.9272C11.937 29.993 12.4129 30.0092 16.213 30.0092C20.0132 30.0092 20.4888 29.993 21.9816 29.9272C23.4688 29.8615 24.4913 29.6209 25.377 29.2761C27.2581 28.5484 28.7453 27.0601 29.4725 25.178C29.8168 24.286 30.0576 23.2682 30.1231 21.78C30.1887 20.2862 30.2051 19.8102 30.2051 16.0074C30.2051 12.2046 30.1996 11.7286 30.134 10.2348ZM27.6135 21.6705C27.5532 23.0385 27.3236 23.7771 27.1323 24.2696C26.6619 25.4898 25.6942 26.4582 24.4748 26.9289C23.9827 27.1204 23.2392 27.3501 21.8776 27.4102C20.4013 27.476 19.9585 27.4923 16.2239 27.4923C12.4893 27.4923 12.041 27.476 10.5701 27.4102C9.20309 27.3501 8.46493 27.1204 7.97283 26.9289C7.36602 26.7045 6.81369 26.3488 6.36537 25.8837C5.9006 25.4295 5.54519 24.8824 5.32092 24.2751C5.12955 23.7827 4.89994 23.0385 4.83993 21.6761C4.77414 20.1988 4.75791 19.7555 4.75791 16.0183C4.75791 12.2811 4.77414 11.8325 4.83993 10.3607C4.89994 8.9928 5.12955 8.25413 5.32092 7.76168C5.54519 7.15424 5.9006 6.60173 6.37092 6.15289C6.82458 5.6878 7.37136 5.33214 7.97838 5.10793C8.47049 4.91643 9.2142 4.68666 10.5756 4.62639C12.0519 4.56077 12.4949 4.54431 16.2293 4.54431C19.9694 4.54431 20.4122 4.56077 21.8831 4.62639C23.2501 4.68666 23.9883 4.91643 24.4804 5.10793C25.0872 5.33214 25.6395 5.6878 26.0878 6.15289C26.5526 6.60708 26.908 7.15424 27.1323 7.76168C27.3236 8.25413 27.5532 8.99814 27.6135 10.3607C27.679 11.8381 27.6955 12.2811 27.6955 16.0183C27.6955 19.7555 27.679 20.1932 27.6135 21.6705Z" fill="white"/>
<path d="M16.2185 8.81201C12.249 8.81201 9.02832 12.0347 9.02832 16.0072C9.02832 19.9797 12.249 23.2024 16.2185 23.2024C20.1883 23.2024 23.4087 19.9797 23.4087 16.0072C23.4087 12.0347 20.1883 8.81201 16.2185 8.81201ZM16.2185 20.6746C13.6433 20.6746 11.5544 18.5844 11.5544 16.0072C11.5544 13.43 13.6433 11.3399 16.2185 11.3399C18.794 11.3399 20.8826 13.43 20.8826 16.0072C20.8826 18.5844 18.794 20.6746 16.2185 20.6746Z" fill="white"/>
<path d="M25.3715 8.52789C25.3715 9.45551 24.6199 10.2076 23.6927 10.2076C22.7658 10.2076 22.0142 9.45551 22.0142 8.52789C22.0142 7.60007 22.7658 6.84814 23.6927 6.84814C24.6199 6.84814 25.3715 7.60007 25.3715 8.52789Z" fill="white"/>
</svg>
