<svg width="41" height="40" viewBox="0 0 41 40" fill="none" xmlns="http://www.w3.org/2000/svg">
<g clip-path="url(#clip0_63778_267)">
<path d="M10.8337 18.2803C10.085 18.2803 9.511 18.5211 9.511 18.5211L9.35247 19.463C9.35247 19.463 9.82593 19.2704 10.5429 19.2704C10.9498 19.2704 11.247 19.3157 11.247 19.6464C11.247 19.8476 11.211 19.9219 11.211 19.9219C11.211 19.9219 10.8904 19.8957 10.7417 19.8957C9.79692 19.8957 8.80469 20.298 8.80469 21.5154C8.80469 22.4743 9.45509 22.6932 9.8592 22.6932C10.6299 22.6932 10.9625 22.1932 10.9795 22.1917L10.9434 22.6096H11.9052L12.3341 19.5997C12.3334 18.3213 11.2202 18.2803 10.8337 18.2803ZM10.2944 21.7774C9.95545 21.7774 9.86698 21.5189 9.86698 21.3645C9.86698 21.0657 10.0291 20.7059 10.8295 20.7059C11.0163 20.7066 11.0361 20.7257 11.0673 20.7314C11.0885 20.9155 10.9526 21.7774 10.2944 21.7774Z" fill="white"/>
<path d="M14.3073 19.2895C14.4609 19.2895 15.0533 19.3384 15.0533 19.3384L15.1913 18.3738C15.1913 18.3738 14.8077 18.2881 14.1835 18.2881C13.3753 18.2881 12.5557 18.611 12.5557 19.7151C12.5557 20.9673 13.923 20.8398 13.923 21.3681C13.923 21.7194 13.5409 21.7484 13.2465 21.7484C12.7362 21.7484 12.2776 21.5742 12.2762 21.5813L12.1304 22.5381C12.1566 22.5452 12.4396 22.6712 13.3562 22.6712C13.6017 22.6712 15.008 22.735 15.008 21.2824C15.008 19.9241 13.7065 20.1925 13.7065 19.6464C13.7065 19.3745 13.9181 19.2895 14.3073 19.2895Z" fill="white"/>
<path d="M16.6053 19.4128H17.1835L17.3229 18.3845H16.778L16.8891 17.7471H15.7971C15.773 17.7704 15.1523 21.342 15.1523 21.7754C15.1523 22.4206 15.514 22.7067 16.0228 22.7017C16.4213 22.6989 16.732 22.5884 16.8417 22.558L16.9783 21.6288C16.9033 21.6288 16.7936 21.6614 16.6966 21.6614C16.3165 21.6614 16.2748 21.4581 16.2989 21.3087L16.6053 19.4128Z" fill="white"/>
<path d="M21.1821 13.4468H19.233C18.9712 13.8009 18.7249 14.1777 18.502 14.5459H21.979C21.7377 14.1621 21.4709 13.7952 21.1821 13.4468Z" fill="white"/>
<path d="M36.3895 25.811C36.3683 25.7791 36.3506 25.755 36.3364 25.7402C36.3286 25.7331 36.3187 25.7253 36.306 25.7217C36.3364 25.7196 36.3619 25.7083 36.3803 25.6892C36.398 25.67 36.4079 25.6474 36.4079 25.6212C36.4079 25.6028 36.4022 25.5851 36.3916 25.5688C36.381 25.5525 36.3654 25.5404 36.3463 25.5341C36.3286 25.527 36.2982 25.5234 36.2564 25.5234H36.1333V25.8811H36.1913V25.7295H36.2246C36.2444 25.7295 36.2607 25.7338 36.2699 25.7423C36.2848 25.7543 36.306 25.7819 36.3308 25.8251L36.3619 25.8818H36.4334L36.3895 25.811ZM36.2607 25.6821H36.1899V25.5744H36.2564C36.284 25.5744 36.3024 25.5766 36.3131 25.5808C36.3244 25.5851 36.3315 25.5914 36.3378 25.5992C36.3435 25.6077 36.3463 25.6169 36.3463 25.6268C36.3463 25.6431 36.3407 25.6573 36.3286 25.6672C36.3166 25.6764 36.2932 25.6821 36.2607 25.6821Z" fill="white"/>
<path d="M22.57 15.6245H17.894C17.5954 16.1904 17.3972 16.6181 17.3413 16.7244H23.013C22.8849 16.3462 22.7377 15.98 22.57 15.6245Z" fill="white"/>
<path d="M7.46619 17.4102L6.38974 20.6042L6.33383 17.4102H4.74003L3.8667 22.6148H4.9205L5.58505 18.6913L5.68272 22.6148H6.43503L7.83845 18.6913L7.21636 22.6148H8.33456L9.19587 17.4102H7.46619Z" fill="white"/>
<path d="M28.5393 18.2803C27.7891 18.2803 27.2158 18.5211 27.2158 18.5211L27.0566 19.463C27.0566 19.463 27.5307 19.2704 28.247 19.2704C28.6539 19.2704 28.9519 19.3157 28.9519 19.6464C28.9519 19.8476 28.9143 19.9219 28.9143 19.9219C28.9143 19.9219 28.5945 19.8957 28.4444 19.8957C27.5003 19.8957 26.5088 20.298 26.5088 21.5154C26.5088 22.4743 27.1599 22.6932 27.5633 22.6932C28.3333 22.6932 28.6659 22.1932 28.6836 22.1917L28.6475 22.6096H29.6086L30.0375 19.5997C30.0396 18.3213 28.9257 18.2803 28.5393 18.2803ZM28.0014 21.7774C27.6617 21.7774 27.5739 21.5189 27.5739 21.3645C27.5739 21.0657 27.736 20.7059 28.5364 20.7059C28.7226 20.7066 28.7424 20.7257 28.7742 20.7314C28.7947 20.9155 28.6581 21.7774 28.0014 21.7774Z" fill="white"/>
<path d="M36.4242 22.1352C36.3952 22.0814 36.3527 22.0403 36.2997 22.012C36.2473 21.9829 36.1935 21.9688 36.1369 21.9688C36.0824 21.9695 36.0279 21.9836 35.9741 22.012C35.921 22.0403 35.88 22.0814 35.8503 22.1352C35.8205 22.1883 35.8057 22.2435 35.8057 22.3009C35.8057 22.3583 35.8205 22.4128 35.8503 22.4652C35.8793 22.5176 35.9203 22.5594 35.9727 22.5891C36.0258 22.6182 36.0803 22.6331 36.1369 22.6331C36.1949 22.6331 36.2501 22.6182 36.3018 22.5891C36.3542 22.5594 36.3952 22.5176 36.4242 22.4652C36.4547 22.4128 36.4681 22.3583 36.4681 22.3009C36.4681 22.2421 36.4539 22.1869 36.4242 22.1352ZM36.3782 22.4376C36.3542 22.4815 36.3202 22.5148 36.2756 22.541C36.2317 22.5651 36.1864 22.5778 36.139 22.5778C36.0909 22.5778 36.0449 22.5651 36.0017 22.541C35.9571 22.5162 35.9239 22.4822 35.8984 22.4376C35.8729 22.393 35.8616 22.3476 35.8616 22.3002C35.8616 22.2527 35.8736 22.2067 35.8998 22.1621C35.9246 22.1182 35.9578 22.0842 36.0031 22.0594C36.0484 22.0346 36.093 22.024 36.139 22.024C36.185 22.024 36.2303 22.0353 36.2735 22.0594C36.3188 22.0842 36.352 22.1175 36.3768 22.1621C36.4016 22.2067 36.415 22.2527 36.415 22.3002C36.415 22.3476 36.403 22.3937 36.3782 22.4376Z" fill="white"/>
<path d="M36.2496 22.4135C36.2291 22.3802 36.2107 22.3569 36.1972 22.3427C36.1887 22.3349 36.1795 22.3285 36.1668 22.3243C36.1972 22.3222 36.222 22.3108 36.2404 22.2917C36.2581 22.2733 36.2687 22.2492 36.2687 22.2237C36.2687 22.206 36.263 22.1876 36.2517 22.1713C36.2404 22.1557 36.2255 22.1437 36.2078 22.1366C36.1901 22.1295 36.159 22.126 36.1172 22.126H35.9927V22.4829H36.0507V22.3314H36.084C36.1045 22.3314 36.1208 22.3356 36.1307 22.3434C36.1455 22.3561 36.1654 22.3831 36.1915 22.4277L36.222 22.4836H36.2935L36.2496 22.4135ZM36.1222 22.2825H36.0521V22.1741H36.1172C36.1455 22.1741 36.1639 22.1763 36.1753 22.1798C36.1845 22.1848 36.193 22.1897 36.1986 22.1989C36.205 22.2081 36.2078 22.2159 36.2078 22.228C36.2078 22.2435 36.2015 22.257 36.1908 22.2669C36.1774 22.279 36.1555 22.2825 36.1222 22.2825Z" fill="white"/>
<path d="M32.2506 18.332C31.7615 18.332 31.3985 18.9999 31.3985 18.9999L31.4961 18.3859H30.4784L29.7969 22.6224H30.9179C31.2371 20.8122 31.2951 19.3441 32.0531 19.6125C32.1869 18.9128 32.3157 18.6415 32.4607 18.3462C32.4607 18.3469 32.3928 18.332 32.2506 18.332Z" fill="white"/>
<path d="M35.0677 17.4157L34.832 18.8782C34.832 18.8782 34.4215 18.3095 33.7775 18.3095C32.7761 18.3102 31.9424 19.5177 31.9424 20.9044C31.9424 21.8003 32.3875 22.6777 33.2963 22.6777C33.9509 22.6777 34.3133 22.2209 34.3133 22.2209L34.2658 22.6112H35.3281L36.1633 17.4136L35.0677 17.4157ZM33.6827 21.6154C33.2892 21.6154 33.1052 21.2854 33.1052 20.767C33.1052 19.9192 33.4852 19.3605 33.9658 19.3605C34.3578 19.3612 34.5595 19.631 34.5595 20.267C34.5595 20.8442 34.2743 21.6154 33.6827 21.6154Z" fill="white"/>
<path d="M39.1249 7.03906H1.21067C0.641662 7.03906 0.181641 7.50011 0.181641 8.06881V31.9321C0.181641 32.5008 0.641662 32.9619 1.21067 32.9619H39.1249C39.6939 32.9619 40.1539 32.5008 40.1539 31.9321V8.06881C40.1539 7.50011 39.6939 7.03906 39.1249 7.03906ZM36.5651 25.8627C36.5353 25.9165 36.495 25.9576 36.4426 25.9867C36.3903 26.0157 36.335 26.0306 36.2784 26.0306C36.2204 26.0306 36.1652 26.0157 36.1128 25.9867C36.0612 25.9576 36.0201 25.9165 35.9897 25.8627C35.9607 25.811 35.9458 25.7558 35.9458 25.6984C35.9458 25.641 35.9607 25.5865 35.9904 25.5327C36.0194 25.4789 36.0619 25.4385 36.1142 25.4095C36.1673 25.3818 36.2211 25.367 36.2777 25.367C36.3336 25.367 36.3874 25.3818 36.4398 25.4095C36.4929 25.4385 36.5346 25.4789 36.5636 25.5327C36.5934 25.5865 36.6075 25.6418 36.6075 25.6984C36.6075 25.7551 36.5948 25.8124 36.5651 25.8627ZM37.3068 20.0008C37.3082 25.6701 32.7179 30.2678 27.0518 30.2692C24.4021 30.2699 21.9859 29.265 20.1657 27.6141C18.3454 29.2622 15.9342 30.2664 13.2887 30.2664C7.6262 30.2664 3.03023 25.668 3.03023 20.0008C3.03023 14.3563 7.5901 9.77136 13.2229 9.73453C13.2448 9.73453 13.2668 9.73453 13.2887 9.73453C15.9342 9.73453 18.3461 10.7388 20.1664 12.3868C21.9859 10.7381 24.3993 9.73311 27.0469 9.7324C32.7129 9.73028 37.3068 14.3259 37.3082 19.9959C37.3068 19.9973 37.3068 19.998 37.3068 20.0008Z" fill="white"/>
<path d="M19.1152 26.4917C19.4401 26.8897 19.784 27.2693 20.1641 27.6135C20.1726 27.6057 20.1818 27.5986 20.1903 27.5916C20.1903 27.5916 20.1896 27.5916 20.1896 27.5908H20.1917C20.5654 27.2502 20.9143 26.8833 21.2335 26.4917H19.1152Z" fill="white"/>
<path d="M20.5124 20.8571C20.5124 20.8571 20.6561 20.1489 20.6561 19.8606C20.6561 19.1404 20.298 18.2622 19.0991 18.2622C18.0007 18.2629 17.1875 19.4471 17.1875 20.7856C17.1875 22.3302 18.2059 22.6971 19.0743 22.6971C19.8754 22.6971 20.2279 22.5172 20.2279 22.5172L20.4204 21.4633C20.4204 21.4633 19.811 21.7325 19.2604 21.7325C18.0877 21.7325 18.293 20.8571 18.293 20.8571H20.5124ZM19.1026 19.2431C19.719 19.2431 19.6051 19.9364 19.6051 19.9917H18.3928C18.3928 19.9201 18.5074 19.2431 19.1026 19.2431Z" fill="white"/>
<path d="M25.6351 18.4073C26.1907 18.4073 26.6373 18.7196 26.6373 18.7196L26.8156 17.5617C26.8156 17.5617 26.1546 17.2939 25.5856 17.2939C24.3251 17.2939 23.0986 18.3888 23.0986 20.4448C23.0986 21.8081 23.7604 22.7083 25.064 22.7083C25.432 22.7083 26.0194 22.5588 26.0194 22.5588L26.2147 21.3662C26.2147 21.3662 25.6797 21.6346 25.3117 21.6346C24.536 21.6339 24.2253 21.0418 24.2253 20.4073C24.2253 19.1162 24.892 18.4073 25.6351 18.4073Z" fill="white"/>
<path d="M17.7461 24.335C17.9237 24.7167 18.1304 25.08 18.3519 25.4341H21.9917C22.2125 25.0814 22.4114 24.7146 22.5891 24.335H17.7461Z" fill="white"/>
<path d="M23.0785 18.3336C22.5895 18.3336 22.2271 19.0014 22.2271 19.0014L22.3255 18.3874H21.3085L20.627 22.624H21.748C22.0658 20.8145 22.1252 19.3456 22.8832 19.614C23.0162 18.9136 23.1443 18.6424 23.2894 18.3463C23.2894 18.3463 23.2215 18.3322 23.0785 18.3336Z" fill="white"/>
</g>
<defs>
<clipPath id="clip0_63778_267">
<rect width="39.9723" height="40" fill="white" transform="translate(0.181641)"/>
</clipPath>
</defs>
</svg>
